# xmcd
#
# Track frame offsets:
#	150
#	36110
#	63716
#	94194
#	125276
#	157354
#	201645
#
# Disc length: 3164 seconds
#
# Revision: 1
# Processed by: cddbd v1.5PL3 Copyright (c) Steve Scherf et al.
# Submitted via: audiograbber 1.82.01
#
DISCID=6a0c5a07
DTITLE=Eric Clapton - 1999-11-24 - Yokohama Arena, Yokohama - Disc 2
DYEAR=1900
DGENRE=
TTITLE0=Eric Clapton - Gin House
TTITLE1=Eric Clapton - Cocaine
TTITLE2=Eric Clapton - Wonderful Tonight
TTITLE3=Eric Clapton - Badge
TTITLE4=Eric Clapton - Have You Ever Loved a Woman
TTITLE5=Eric Clapton - Layla
TTITLE6=Eric Clapton - Sunshine of Your Love
EXTD=
EXTT0=
EXTT1=
EXTT2=
EXTT3=
EXTT4=
EXTT5=
EXTT6=
PLAYORDER=
